<svg aria-hidden="true" style="position: absolute; width: 0; height: 0; overflow: hidden;" version="1.1" xmlns="http://www.w3.org/2000/svg" xmlns:xlink="http://www.w3.org/1999/xlink">
    <defs>
        <symbol id="icon-inst" viewBox="0 0 32 32">
            <path fill="#fff" style="fill: var(--color1, #fff)" d="M18.526 0.001c2.197 0.004 2.824 0.023 4.21 0.102 1.757 0.052 2.894 0.31 3.927 0.723s1.912 0.929 2.79 1.806c0.878 0.877 1.447 1.755 1.809 2.839s0.672 2.271 0.723 3.923c0.052 1.755-0.052 2.323-0.052 6.71l-0 2.208c-0 0.101-0 0.199-0 0.294l-0.001 0.536c-0.003 1.761-0.014 2.36-0.050 3.516-0.052 1.755-0.362 2.89-0.723 3.923s-0.93 1.961-1.809 2.839c-0.878 0.877-1.757 1.445-2.842 1.806s-2.17 0.671-3.927 0.723c-0.469 0.014-0.845 0.024-1.229 0.031l-0.291 0.005c-0.492 0.008-1.033 0.011-1.818 0.013l-0.501 0.001c-0.089 0-0.181 0-0.276 0l-4.705-0c-2.424-0.003-3.003-0.020-4.408-0.102-1.757-0.052-2.894-0.361-3.927-0.723s-1.964-0.929-2.842-1.806-1.447-1.755-1.809-2.839c-0.362-1.084-0.672-2.168-0.723-3.923-0.010-0.351-0.019-0.65-0.025-0.94l-0.009-0.432c-0.008-0.483-0.013-0.997-0.015-1.734l-0.001-0.471c-0-0.083-0-0.169-0-0.258l-0-3.598c0.006-3.628 0.054-4.142 0.103-5.78 0.052-1.755 0.31-2.89 0.723-3.923 0.362-1.084 0.93-1.961 1.809-2.839s1.757-1.497 2.842-1.858c1.085-0.361 2.17-0.671 3.927-0.723 1.23-0.036 1.827-0.047 3.581-0.050l5.541-0zM18.79 2.943h-5.439c-1.138 0.002-1.813 0.006-2.426 0.017l-0.28 0.006c-0.324 0.007-0.648 0.016-1.034 0.028-1.602 0.052-2.429 0.361-2.997 0.568-0.723 0.31-1.24 0.619-1.809 1.187-0.517 0.516-0.878 1.084-1.188 1.806-0.207 0.619-0.517 1.445-0.568 2.994-0.012 0.385-0.021 0.709-0.028 1.033l-0.006 0.279c-0.010 0.565-0.014 1.183-0.016 2.169l-0.001 0.813c-0 0.099-0 0.201-0 0.307l-0 8.251c0.052 1.6 0.362 2.426 0.568 2.994 0.362 0.723 0.672 1.239 1.24 1.806 0.517 0.568 1.085 0.929 1.809 1.239 0.62 0.207 1.447 0.516 2.997 0.568 1.14 0.036 1.765 0.047 3.432 0.050l0.826 0.001c0.101 0 0.205 0 0.312 0l8.296 0c1.602-0.052 2.429-0.361 2.997-0.568 0.723-0.361 1.24-0.671 1.809-1.239 0.568-0.516 0.93-1.084 1.24-1.806 0.207-0.619 0.517-1.445 0.568-2.994 0.010-0.33 0.021-0.615 0.031-0.894l0.010-0.278c0.035-1.023 0.063-2.138 0.063-5.28l-0-2.157c-0-0.099-0-0.195-0-0.288l-0.001-0.525c-0.003-1.725-0.014-2.325-0.050-3.481-0.052-1.6-0.362-2.426-0.568-2.994-0.362-0.723-0.672-1.239-1.24-1.806-0.517-0.516-1.085-0.877-1.809-1.187-0.62-0.206-1.447-0.516-2.997-0.568-0.386-0.012-0.71-0.021-1.034-0.028l-0.28-0.006c-0.612-0.011-1.288-0.015-2.426-0.017zM16.019 7.794c4.599 0 8.268 3.613 8.268 8.206s-3.772 8.206-8.268 8.206c-4.495 0-8.216-3.613-8.216-8.206 0-4.49 3.617-8.206 8.216-8.206zM16.019 10.632c-2.945 0-5.374 2.426-5.374 5.368s2.377 5.368 5.374 5.368c2.997 0 5.374-2.374 5.374-5.368s-2.377-5.368-5.374-5.368zM24.648 5.523c1.056 0 1.912 0.855 1.912 1.91s-0.856 1.91-1.912 1.91c-1.056 0-1.912-0.855-1.912-1.91s0.856-1.91 1.912-1.91z"></path>
        </symbol>
        <symbol id="icon-facebook" viewBox="0 0 32 32">
            <path fill="#fff" style="fill: var(--color1, #fff)" d="M30.194 0h-28.387c-1.032 0-1.806 0.826-1.806 1.806v28.387c0 1.032 0.826 1.806 1.806 1.806h15.277v-12.439h-4.129v-4.8h4.129v-3.561c0-4.129 2.477-6.4 6.194-6.4 1.239 0 2.477 0.052 3.716 0.206v4.284h-2.477c-1.961 0-2.374 0.929-2.374 2.323v3.045h4.697l-0.671 4.852h-4.129v12.284h8.155c1.032 0 1.806-0.774 1.806-1.807v-28.181c-0.052-1.032-0.877-1.806-1.806-1.806z"></path>
        </symbol>
        <symbol id="icon-twitter" viewBox="0 0 32 32">
            <path fill="#fff" style="fill: var(--color1, #fff)" d="M9.961 29.553c12.181 0 18.787-10.065 18.787-18.787 0-0.206 0-0.568-0.052-0.877 1.29-0.929 2.426-2.116 3.303-3.406-1.239 0.568-2.477 0.877-3.768 1.032 1.394-0.826 2.426-2.116 2.89-3.664-1.29 0.723-2.632 1.29-4.232 1.6-1.239-1.29-2.89-2.116-4.8-2.116-3.664 0-6.658 2.994-6.658 6.658 0 0.516 0.052 1.032 0.155 1.548-5.316-0.361-10.168-2.994-13.471-6.968-0.568 1.032-0.877 2.116-0.877 3.303 0 2.323 1.187 4.284 2.994 5.471-1.084-0.052-2.116-0.361-2.994-0.826 0 0.052 0 0.052 0 0.052 0 3.148 2.271 5.884 5.265 6.503-0.568 0.155-1.187 0.206-1.652 0.206-0.413 0-0.877-0.052-1.239-0.155 0.877 2.632 3.303 4.542 6.194 4.593-2.271 1.755-5.11 2.839-8.155 2.839-0.619 0.103-1.135 0-1.652-0.052 2.787 1.961 6.245 3.045 9.961 3.045z"></path>
        </symbol>
        <symbol id="icon-linkedin" viewBox="0 0 32 32">
            <path fill="#fff" style="fill: var(--color1, #fff)" d="M29.763 0h-27.43c-1.296 0-2.333 1.032-2.333 2.323v27.355c0 1.239 1.037 2.323 2.333 2.323h27.326c1.296 0 2.333-1.032 2.333-2.323v-27.407c0.104-1.239-0.933-2.271-2.23-2.271zM9.489 27.2h-4.719v-15.226h4.719v15.226zM7.104 9.858c-1.556 0-2.748-1.239-2.748-2.735s1.244-2.736 2.748-2.736c1.504 0 2.748 1.239 2.748 2.736s-1.141 2.735-2.748 2.735zM27.378 27.2h-4.719v-7.381c0-1.755-0.052-4.077-2.489-4.077-2.489 0-2.852 1.961-2.852 3.923v7.535h-4.719v-15.226h4.615v2.116h0.052c0.674-1.239 2.178-2.477 4.511-2.477 4.822 0 5.704 3.097 5.704 7.329v8.258h-0.104z"></path>
        </symbol>
        <symbol id="icon-bath" viewBox="0 0 32 32">
            <path fill="#45525b" style="fill: var(--color2, #45525b)" d="M31.065 14.575h-24.935v-10.13c0-0.686 0.519-1.213 1.195-1.213h4v1.53c-1.091 0.158-1.974 1.108-1.974 2.269v2.321c0 0.528 0.416 0.95 0.935 0.95h3.688c0.519 0 0.935-0.422 0.935-0.95v-2.321c0-1.055-0.727-1.952-1.714-2.216v-2.532c0-0.528-0.416-0.95-0.935-0.95h-4.935c-1.662 0-3.013 1.372-3.013 3.060v10.13h-3.377c-0.519 0-0.935 0.422-0.935 0.95s0.416 0.95 0.935 0.95h1.247v4.221c0 3.113 2.286 5.698 5.247 6.12l-1.143 2.585c-0.208 0.475 0 1.002 0.468 1.213 0.104 0.053 0.26 0.106 0.364 0.106 0.364 0 0.675-0.211 0.831-0.528l1.455-3.271h14.286c0.104 0 0.208 0 0.364 0l1.455 3.271c0.156 0.369 0.468 0.528 0.831 0.528 0.104 0 0.26 0 0.364-0.106 0.468-0.211 0.675-0.739 0.468-1.213l-1.299-2.902c2.286-0.897 3.948-3.165 3.948-5.803v-4.221h1.247c0.52 0 0.935-0.422 0.935-0.95 0-0.475-0.416-0.897-0.935-0.897zM13.039 8.456h-1.87v-1.424c0-0.264 0.208-0.475 0.468-0.475h0.935c0.26 0 0.468 0.211 0.468 0.475v1.424zM28 20.643c0 2.374-1.922 4.379-4.312 4.379h-15.377c-2.338 0-4.312-1.952-4.312-4.379v-4.221h24v4.221z"></path>
        </symbol>
        <symbol id="icon-bed" viewBox="0 0 32 32">
            <path fill="#45525b" style="fill: var(--color2, #45525b)" d="M29.847 21.247c0-0.052 0 0 0 0 0-0.052 0-0.052 0-0.052l-4.335-9.61v-8.416c0-1.714-1.377-3.169-3.111-3.169h-12.853c-1.683 0-3.111 1.403-3.111 3.169v8.416l-4.335 9.61c-0.051 0.104-0.102 0.26-0.102 0.364v9.507c0 0.52 0.408 0.935 0.918 0.935s0.918-0.416 0.918-0.935v-2.753h24.328v2.753c0 0.52 0.408 0.935 0.918 0.935s0.918-0.416 0.918-0.935v-9.507c-0.102-0.104-0.102-0.208-0.153-0.312zM7.916 12.675h16.066l3.621 8h-23.257l3.57-8zM8.273 3.169c0-0.727 0.561-1.351 1.326-1.351h12.802c0.714 0 1.326 0.571 1.326 1.351v7.688h-15.454v-7.688zM3.836 26.493v-4h24.328v4h-24.328z"></path>
        </symbol>
        <symbol id="icon-door" viewBox="0 0 32 32">
            <path fill="#45525b" style="fill: var(--color2, #45525b)" d="M24.352 0c1.593 0 2.93 1.301 2.981 2.966v26.016c0 1.665-1.336 3.018-2.981 3.018h-16.704c-1.645 0-2.981-1.353-2.981-3.018v-26.016c0-1.665 1.336-2.966 2.93-2.966h16.756zM24.301 1.769h-16.704c-0.668 0-1.182 0.572-1.182 1.197v26.016c0 0.676 0.565 1.197 1.182 1.197h16.704c0.668 0 1.182-0.572 1.182-1.197v-26.016c0-0.676-0.565-1.197-1.182-1.197zM21.577 13.893c0.925 0 1.748 0.78 1.748 1.769s-0.771 1.769-1.748 1.769c-0.976 0-1.748-0.78-1.748-1.769s0.771-1.769 1.748-1.769z"></path>
        </symbol>
        <symbol id="icon-right-arrow-mini" viewBox="0 0 32 32">
            <path fill="#45525b" style="fill: var(--color2, #45525b)" d="M31.133 13.873l-5.795-5.947c-0.795-0.771-2.045-0.771-2.841-0.11-0.795 0.771-0.795 1.982-0.114 2.753l3.295 3.414h-23.634c-1.136 0-2.045 0.881-2.045 1.982s0.909 1.982 2.045 1.982h23.747l-3.295 3.414c-0.795 0.771-0.682 1.983 0.114 2.753 0.341 0.33 0.909 0.551 1.364 0.551 0.568 0 1.023-0.22 1.477-0.551l5.795-5.947c1.023-1.322 1.023-3.084-0.114-4.295z"></path>
        </symbol>
        <symbol id="icon-star" viewBox="0 0 32 32">
            <path fill="#52503b" style="fill: var(--color3, #52503b)" d="M31.276 11.537l-9.991-1.546-4.526-9.494c-0.331-0.662-1.214-0.662-1.546 0l-4.526 9.55-9.936 1.49c-0.718 0.11-0.994 1.049-0.442 1.546l7.231 7.452-1.711 10.433c-0.11 0.718 0.607 1.325 1.27 0.883l8.998-4.913 8.942 4.913c0.607 0.331 1.38-0.221 1.214-0.883l-1.711-10.433 7.231-7.452c0.442-0.497 0.221-1.435-0.497-1.546z"></path>
        </symbol>
        <symbol id="icon-right-arrow" viewBox="0 0 29 32">
            <path fill="#52503b" style="fill: var(--color3, #52503b)" d="M28.081 17.414c0.781-0.781 0.781-2.047 0-2.829l-12.728-12.728c-0.781-0.781-2.047-0.781-2.828 0s-0.781 2.047 0 2.828l11.314 11.314-11.314 11.314c-0.781 0.781-0.781 2.047 0 2.828s2.047 0.781 2.828 0l12.728-12.728zM0 18h26.667v-4h-26.667v4z"></path>
        </symbol>
        <symbol id="icon-left-arrow" viewBox="0 0 29 32">
            <path fill="#52503b" style="fill: var(--color3, #52503b)" d="M1.252 14.586c-0.781 0.781-0.781 2.047 0 2.829l12.728 12.728c0.781 0.781 2.047 0.781 2.828 0s0.781-2.047 0-2.828l-11.314-11.314 11.314-11.314c0.781-0.781 0.781-2.047 0-2.828s-2.047-0.781-2.828 0l-12.728 12.728zM29.333 14h-26.667v4h26.667v-4z"></path>
        </symbol>
        <symbol id="icon-down-arrow" viewBox="0 0 32 32">
            <path d="M14.586 29.414c0.781 0.781 2.047 0.781 2.829 0l12.728-12.728c0.781-0.781 0.781-2.047 0-2.828s-2.047-0.781-2.828 0l-11.314 11.314-11.314-11.314c-0.781-0.781-2.047-0.781-2.828 0s-0.781 2.047 0 2.828l12.728 12.728zM14 1.333v26.667h4v-26.667h-4z"></path>
        </symbol>
        <symbol id="icon-geo" viewBox="0 0 32 32">
            <path fill="#fff" style="fill: var(--color1, #fff)" d="M4.935 19.442c0.468-0.21 0.987 0 1.195 0.473s0 0.998-0.468 1.209c-2.39 1.051-3.792 2.365-3.792 3.626 0 2.575 5.766 5.465 14.13 5.465s14.182-2.89 14.13-5.465c0-1.261-1.351-2.575-3.688-3.573-0.468-0.21-0.675-0.736-0.468-1.209s0.727-0.683 1.195-0.473c3.117 1.366 4.831 3.205 4.831 5.255 0 4.099-6.857 7.251-16 7.251s-16-3.1-16-7.251c0-2.049 1.766-3.941 4.935-5.307zM16 0c5.766 0 10.442 4.729 10.442 10.562 0 4.361-5.455 11.192-8.727 14.87-0.416 0.525-1.039 0.788-1.714 0.788s-1.299-0.315-1.714-0.788c-3.273-3.678-8.727-10.509-8.727-14.87 0-5.832 4.675-10.562 10.442-10.562zM16 1.839c-4.727 0-8.623 3.888-8.623 8.723 0 2.68 3.117 7.777 8.26 13.609 0.104 0.158 0.312 0.158 0.364 0.158s0.208 0 0.364-0.158c5.195-5.833 8.26-10.929 8.26-13.609 0-4.834-3.896-8.723-8.623-8.723z"></path>
        </symbol>
        <symbol id="icon-build" viewBox="0 0 32 32">
            <path fill="#fff" style="fill: var(--color1, #fff)" d="M31.844 13.373l0.052-0.051c0 0 0-0.051 0.052-0.102 0-0.051 0-0.051 0.052-0.102v-0.051c0-0.051 0-0.051 0-0.102v-0.102c0 0 0 0 0-0.051-1.093-6.171-7.961-10.812-16.026-10.812s-14.933 4.641-15.974 10.761c0 0 0 0 0 0.051v0.102c0 0.051 0 0.051 0 0.102s0 0.051 0 0.102 0 0.051 0.052 0.102c0 0.051 0 0.051 0.052 0.102 0 0.051 0.052 0.051 0.052 0.102l0.052 0.051 0.052 0.051 0.052 0.051 0.052 0.051 0.052 0.051c0 0 0.052 0.051 0.104 0.051 0 0 0.052 0.051 0.104 0.051 0 0 0.052 0 0.104 0s0.052 0 0.104 0h3.33v14.331h-0.833c-0.52 0-0.937 0.408-0.937 0.918s0.416 0.918 0.937 0.918h8.846c0.52 0 0.937-0.408 0.937-0.918s-0.416-0.918-0.937-0.918h-0.78v-14.281h9.262v14.332h-0.885c-0.52 0-0.937 0.408-0.937 0.918s0.416 0.918 0.937 0.918h8.845c0.52 0 0.937-0.408 0.937-0.918s-0.416-0.918-0.937-0.918h-0.676v-14.332h3.122c0.052 0 0.104 0 0.156 0s0.052 0 0.104 0 0.052 0 0.104 0 0.052 0 0.104-0.051c0.052 0 0.052-0.051 0.104-0.051l0.052-0.051 0.052-0.051 0.052-0.051 0.052-0.051c0-0.102 0-0.102 0-0.153zM15.974 3.785c6.712 0 12.488 3.519 13.945 8.313h-27.889c1.457-4.845 7.233-8.313 13.945-8.313zM9.574 28.164h-3.642v-14.332h3.642v14.332zM26.12 28.164h-3.642v-14.332h3.642v14.332z"></path>
        </symbol>
        <symbol id="icon-table" viewBox="0 0 32 32">
            <path fill="#fff" style="fill: var(--color1, #fff)" d="M25.069 20.033c0-1.613-1.322-2.914-2.961-2.914h-0.37l1.216-9.73v-0.052c0.106-1.925-0.582-3.746-1.957-5.151s-3.173-2.185-5.129-2.185c-1.957 0-3.807 0.78-5.129 2.185-1.375 1.405-2.062 3.226-1.957 5.151v0.052l1.216 9.73h-0.37c-1.639 0-2.961 1.301-2.961 2.914v2.237c0 0.781 0.317 1.509 0.846 2.029v6.764c0 0.52 0.423 0.937 0.952 0.937s0.952-0.416 0.952-0.937v-5.88c0.106 0 0.212 0 0.264 0h2.221v4.423c0 0.52 0.423 0.937 0.952 0.937s0.952-0.416 0.952-0.937v-4.423h4.389v4.423c0 0.52 0.423 0.937 0.952 0.937s0.952-0.416 0.952-0.937v-4.423h2.221c0.106 0 0.211 0 0.264 0v5.88c0 0.52 0.423 0.937 0.952 0.937s0.952-0.416 0.952-0.937v-6.712c0.529-0.52 0.846-1.249 0.846-2.029v-2.289h-0.264zM10.527 7.181c-0.053-1.405 0.476-2.758 1.428-3.798 1.005-1.041 2.38-1.613 3.807-1.613 1.481 0 2.803 0.572 3.807 1.613s1.533 2.393 1.428 3.798l-1.216 9.886h-7.985l-1.269-9.886zM9.575 23.415c-0.212 0-0.423-0.052-0.582-0.156-0.053-0.052-0.106-0.052-0.159-0.104-0.264-0.208-0.423-0.52-0.423-0.833v-2.237c0-0.624 0.529-1.093 1.11-1.093h12.48c0.635 0 1.111 0.52 1.111 1.093v2.237c0 0.364-0.159 0.624-0.423 0.833-0.053 0.052-0.106 0.052-0.159 0.104-0.159 0.104-0.37 0.156-0.582 0.156h-12.374z"></path>
        </symbol>
        <symbol id="icon-logo-head" viewBox="0 0 88 32">
            <path fill="#45525b" style="fill: var(--color1, #45525b)" d="M49.81 21.26c1.223 0 2.199 0.31 2.929 0.929s1.131 1.455 1.205 2.507h-2.484c-0.037-0.413-0.207-0.742-0.509-0.985s-0.708-0.366-1.214-0.366c-0.47 0-0.831 0.087-1.085 0.263s-0.38 0.419-0.38 0.732c0 0.351 0.173 0.617 0.519 0.799s0.884 0.366 1.614 0.554c0.741 0.187 1.353 0.382 1.835 0.582s0.898 0.509 1.25 0.929c0.352 0.419 0.535 0.974 0.547 1.662 0 0.601-0.164 1.139-0.491 1.615s-0.797 0.848-1.409 1.117c-0.612 0.269-1.325 0.403-2.14 0.403-0.841 0-1.595-0.153-2.261-0.46s-1.196-0.723-1.585-1.248-0.602-1.108-0.64-1.747h2.614c0.049 0.401 0.244 0.733 0.584 0.996s0.763 0.394 1.27 0.394c0.494 0 0.881-0.1 1.158-0.3s0.417-0.457 0.417-0.77c0-0.338-0.17-0.592-0.51-0.76s-0.88-0.354-1.622-0.554c-0.766-0.188-1.393-0.382-1.881-0.582-0.489-0.2-0.909-0.507-1.261-0.92s-0.528-0.97-0.528-1.672c0-0.575 0.164-1.101 0.491-1.577s0.797-0.851 1.409-1.127c0.612-0.275 1.331-0.413 2.159-0.413zM65.158 21.26c0.766 0 1.436 0.157 2.011 0.469s1.035 0.708 1.381 1.183v-1.483h2.614v10.402h-2.614v-1.521c-0.333 0.488-0.794 0.892-1.381 1.211s-1.264 0.479-2.030 0.479c-0.865 0-1.652-0.225-2.363-0.676s-1.273-1.085-1.687-1.905c-0.414-0.82-0.621-1.762-0.621-2.827 0-1.051 0.206-1.983 0.621-2.798 0.414-0.813 0.976-1.439 1.687-1.877s1.504-0.657 2.382-0.657zM83.156 21.26c0.976 0 1.851 0.212 2.623 0.638s1.371 1.030 1.798 1.813c0.426 0.782 0.639 1.68 0.639 2.695 0 0.375-0.025 0.713-0.073 1.014h-7.508c0.062 0.751 0.321 1.339 0.778 1.765s1.020 0.638 1.687 0.638c0.964 0 1.65-0.419 2.058-1.258h2.799c-0.297 1.002-0.865 1.824-1.705 2.469s-1.872 0.966-3.096 0.966c-0.989 0-1.875-0.222-2.66-0.666s-1.396-1.073-1.835-1.887c-0.438-0.814-0.657-1.753-0.657-2.817 0-1.076 0.216-2.021 0.649-2.835 0.432-0.813 1.038-1.439 1.817-1.877s1.675-0.657 2.687-0.657zM44.823 18.706v2.141h-4.912v3.286h4.357v2.084h-4.357v3.473h4.912v2.141h-7.507v-13.125h7.507zM58.077 18.856v2.573h2.298v2.159h-2.298v5.033c0 0.35 0.083 0.604 0.25 0.76s0.448 0.234 0.844 0.234h1.205v2.216h-1.631c-2.187 0-3.281-1.077-3.281-3.229v-5.014h-1.223v-2.159h1.223v-2.573h2.614zM75.613 18.856v2.573h2.298v2.159h-2.298v5.033c0 0.35 0.083 0.604 0.25 0.76s0.448 0.234 0.844 0.234h1.205v2.216h-1.631c-2.187 0-3.281-1.077-3.281-3.229v-5.014h-1.223v-2.159h1.223v-2.573h2.614zM65.825 23.57c-0.482 0-0.926 0.118-1.334 0.357s-0.738 0.585-0.992 1.041c-0.253 0.458-0.38 0.998-0.38 1.624s0.127 1.174 0.38 1.644c0.254 0.469 0.587 0.829 1.001 1.079s0.856 0.375 1.325 0.375c0.482 0 0.933-0.121 1.354-0.366 0.419-0.244 0.753-0.594 1.001-1.051s0.37-1.005 0.37-1.644c0-0.638-0.124-1.186-0.37-1.642s-0.582-0.808-1.001-1.051c-0.421-0.244-0.872-0.366-1.354-0.366zM83.082 23.419c-0.643 0-1.183 0.197-1.622 0.592s-0.707 0.942-0.806 1.643h4.875c-0.013-0.675-0.253-1.217-0.723-1.623s-1.044-0.611-1.723-0.611z"></path>
            <path fill="#ff8a63" style="fill: var(--color2, #ff8a63)" d="M18.040 0l13.039 13.239v18.593h-3.026v-17.325l-12.155-12.337 2.142-2.169zM9.486 8.677l9.485 9.633v13.521h-18.971v-13.521l9.486-9.633zM13.763 4.339l11.266 11.436v16.057h-3.026v-14.789l-10.376-10.534 2.136-2.169z"></path>
        </symbol>
        <symbol id="icon-logo-hero" viewBox="0 0 40 32">
            <path fill="#45525b" style="fill: var(--color1, #45525b)" d="M9.761 23.383c0.956 0 1.718 0.239 2.288 0.719s0.883 1.126 0.942 1.939h-1.941c-0.029-0.32-0.161-0.574-0.398-0.762s-0.553-0.283-0.949-0.283c-0.367 0-0.649 0.067-0.847 0.203s-0.297 0.324-0.297 0.566c0 0.271 0.136 0.477 0.405 0.617s0.691 0.283 1.261 0.428c0.579 0.145 1.057 0.295 1.434 0.45s0.702 0.394 0.977 0.718c0.275 0.324 0.418 0.753 0.427 1.285 0 0.464-0.128 0.881-0.384 1.249s-0.623 0.656-1.101 0.864c-0.478 0.208-1.035 0.312-1.672 0.312-0.657 0-1.246-0.119-1.767-0.356s-0.935-0.559-1.239-0.966c-0.304-0.407-0.47-0.857-0.5-1.351h2.042c0.039 0.31 0.19 0.567 0.456 0.77s0.596 0.305 0.992 0.305c0.386 0 0.688-0.077 0.905-0.232s0.326-0.353 0.326-0.596c0-0.261-0.133-0.457-0.398-0.588s-0.688-0.274-1.267-0.428c-0.599-0.145-1.088-0.295-1.47-0.45s-0.71-0.392-0.985-0.711c-0.275-0.32-0.413-0.75-0.413-1.293 0-0.445 0.128-0.852 0.384-1.219s0.623-0.658 1.101-0.872c0.478-0.213 1.040-0.319 1.687-0.319zM21.752 23.383c0.598 0 1.122 0.121 1.571 0.363s0.809 0.547 1.079 0.915v-1.147h2.042v8.046h-2.042v-1.177c-0.26 0.378-0.62 0.69-1.079 0.937s-0.987 0.371-1.586 0.371c-0.676 0-1.291-0.174-1.846-0.523s-0.995-0.84-1.318-1.474c-0.324-0.634-0.485-1.363-0.485-2.186 0-0.813 0.161-1.534 0.485-2.164 0.324-0.629 0.763-1.113 1.318-1.452s1.175-0.508 1.861-0.508zM35.814 23.383c0.762 0 1.446 0.164 2.049 0.493s1.072 0.797 1.405 1.402c0.333 0.605 0.499 1.299 0.499 2.084 0 0.29-0.020 0.551-0.058 0.784h-5.865c0.048 0.581 0.251 1.036 0.608 1.365s0.797 0.494 1.318 0.494c0.753 0 1.289-0.324 1.607-0.973h2.187c-0.232 0.775-0.676 1.411-1.333 1.91s-1.463 0.748-2.418 0.748c-0.773 0-1.465-0.172-2.078-0.515s-1.091-0.83-1.434-1.46c-0.342-0.629-0.514-1.356-0.514-2.179 0-0.832 0.169-1.563 0.507-2.193 0.338-0.629 0.811-1.113 1.419-1.452s1.308-0.508 2.1-0.508zM5.865 21.407v1.656h-3.838v2.542h3.404v1.612h-3.404v2.686h3.838v1.656h-5.865v-10.151h5.865zM16.22 21.524v1.99h1.796v1.67h-1.796v3.892c0 0.271 0.065 0.467 0.195 0.588s0.35 0.181 0.659 0.181h0.941v1.713h-1.275c-1.709 0-2.563-0.832-2.563-2.498v-3.878h-0.956v-1.67h0.956v-1.99h2.043zM29.92 21.524v1.99h1.796v1.67h-1.796v3.892c0 0.271 0.065 0.467 0.195 0.588s0.35 0.181 0.659 0.181h0.941v1.713h-1.275c-1.709 0-2.563-0.832-2.563-2.498v-3.878h-0.956v-1.67h0.956v-1.99h2.043zM22.273 25.169c-0.377 0-0.724 0.091-1.042 0.276s-0.577 0.453-0.775 0.806c-0.198 0.354-0.297 0.772-0.297 1.256s0.099 0.908 0.297 1.271c0.198 0.363 0.459 0.641 0.782 0.835s0.669 0.29 1.035 0.29c0.377 0 0.729-0.094 1.058-0.283 0.328-0.189 0.589-0.46 0.782-0.813s0.289-0.777 0.289-1.271c0-0.494-0.097-0.917-0.289-1.271s-0.454-0.625-0.782-0.813c-0.329-0.189-0.681-0.283-1.058-0.283zM35.755 25.053c-0.502 0-0.925 0.152-1.267 0.457s-0.553 0.729-0.63 1.271h3.809c-0.010-0.522-0.198-0.941-0.565-1.256s-0.816-0.472-1.346-0.472z"></path>
            <path fill="#ff8a63" style="fill: var(--color2, #ff8a63)" d="M21.269 0l7.224 7.261v10.197h-1.676v-9.502l-6.734-6.766 1.186-1.19zM16.53 4.759l5.255 5.283v7.415h-10.51v-7.415l5.255-5.283zM18.899 2.379l6.241 6.272v8.806h-1.676v-8.111l-5.748-5.777 1.183-1.19z"></path>
        </symbol>
    </defs>
</svg>